# xmcd
#
# Track frame offsets: 
#        182
#        15150
#        26477
#        40462
#        54207
#        67617
#        81360
#        94377
#        108852
#        125182
#        138735
#        151547
#        163787
#        176807
#        190290
#        206677
#        220295
#        231177
#
# Disc length: 3281 seconds
#
# Revision: 0
# Processed by: cddbd v1.4PL0 Copyright (c) Steve Scherf et al.
# Submitted via: ExactAudioCopy v0.90b4
#
DISCID=f40ccf12
DTITLE=Janie Fricke - Country Store Collection
DYEAR=1988
DGENRE=Country
TTITLE0=Please Help Me I'm Falling
TTITLE1=If You Could See Me Now
TTITLE2=Loving Arms (w) Johnny Duncan
TTITLE3=Lonely People
TTITLE4=Blue Sky Shining
TTITLE5=But Love Me
TTITLE6=Got My Mojo Working
TTITLE7=Come A Little Bit Closer (w) Johnny Duncan
TTITLE8=Tell Me A Lie
TTITLE9=Cry
TTITLE10=Do Me With Love
TTITLE11=Enough Of Each Other
TTITLE12=Your Heart's Not In It
TTITLE13=Homeward Bound
TTITLE14=It Ain't Easy Being Easy
TTITLE15=When I Fall In Love
TTITLE16=Don't Worry Bout Me Baby
TTITLE17=Till I Can't Take It Anymore
EXTD=
EXTT0=
EXTT1=
EXTT2=
EXTT3=
EXTT4=
EXTT5=
EXTT6=
EXTT7=
EXTT8=
EXTT9=
EXTT10=
EXTT11=
EXTT12=
EXTT13=
EXTT14=
EXTT15=
EXTT16=
EXTT17=
PLAYORDER=
